<svg width="106" height="106" viewBox="0 0 106 106" fill="none" xmlns="http://www.w3.org/2000/svg">
<path d="M32.9688 6.59375V19.7812H36.2656V23.1425L26.375 33.4613V89.0156H24.7266C22.0011 89.0156 19.7812 91.2355 19.7812 93.9609C19.7812 96.6864 22.0011 98.9062 24.7266 98.9062H37.9141C40.0588 98.9062 41.8736 97.5234 42.5567 95.6094H45.1839L47.0352 97.4606C48.9624 99.3878 52.101 99.3878 54.0282 97.4606C54.5669 96.922 54.94 96.2845 55.1776 95.6094H62.9433C63.6264 97.5234 65.4412 98.9062 67.5859 98.9062H80.7734C83.4989 98.9062 85.7188 96.6864 85.7188 93.9609C85.7188 91.2355 83.4989 89.0156 80.7734 89.0156H79.125V33.4613L69.2344 23.1425V19.7812H72.5312V6.59375H32.9688ZM34.6172 8.24219H70.8828V18.1328H34.6172V8.24219ZM37.9141 19.7812H67.5859V23.0781H37.9141V19.7812ZM37.0287 24.7266H68.4713L77.4766 34.1246V42.8594H28.0234V34.1246L37.0287 24.7266ZM28.0234 44.5078H37.9141V74.1797H28.0234V44.5078ZM39.5625 44.5078H65.9375V74.1797H39.5625V44.5078ZM67.5859 44.5078H77.4766V74.1797H67.5859V44.5078ZM28.0234 75.8281H77.4766V89.0156H67.5859C64.8605 89.0156 62.6406 91.2355 62.6406 93.9609C62.6406 94.2597 62.6765 94.5491 62.7276 94.8335C62.6718 94.5504 62.6406 94.2605 62.6406 93.9609H55.4738C55.473 92.6954 54.991 91.4304 54.0282 90.4677L50.5317 86.9712L49.3662 85.8057L44.7042 81.1437C42.777 79.2165 39.6384 79.2165 37.7112 81.1437C35.784 83.0709 35.784 86.2095 37.7112 88.1367L38.6642 89.0897C38.4178 89.0517 38.1709 89.0156 37.9141 89.0156H28.0234V75.8281ZM41.2077 81.3304C42.0479 81.3304 42.8879 81.6584 43.5387 82.3092L48.2007 86.9712L43.5387 91.6332L38.8767 86.9712C37.5751 85.6696 37.5751 83.6108 38.8767 82.3092C39.5275 81.6584 40.3675 81.3304 41.2077 81.3304ZM49.3662 88.1367L52.8627 91.6332C54.1643 92.9348 54.1643 94.9936 52.8627 96.2952C51.5611 97.5967 49.5023 97.5967 48.2007 96.2952L44.7042 92.7987L49.3662 88.1367ZM24.7266 90.6641H29.6719V97.2578H24.7266C22.8858 97.2578 21.4297 95.8017 21.4297 93.9609C21.4297 92.1202 22.8858 90.6641 24.7266 90.6641ZM31.3203 90.6641H37.9141C39.7548 90.6641 41.2109 92.1202 41.2109 93.9609C41.2109 95.8017 39.7548 97.2578 37.9141 97.2578H31.3203V90.6641ZM67.5859 90.6641H74.1797V97.2578H67.5859C65.7452 97.2578 64.2891 95.8017 64.2891 93.9609C64.2891 92.1202 65.7452 90.6641 67.5859 90.6641ZM75.8281 90.6641H80.7734C82.6142 90.6641 84.0703 92.1202 84.0703 93.9609C84.0703 95.8017 82.6142 97.2578 80.7734 97.2578H75.8281V90.6641ZM42.7853 93.2108L43.5355 93.9609H42.8594C42.8594 94.2605 42.8282 94.5504 42.7724 94.8335C42.8235 94.5491 42.8594 94.2597 42.8594 93.9609C42.8594 93.7041 42.8233 93.4572 42.7853 93.2108V93.2108ZM55.4641 94.0801C55.4576 94.323 55.4378 94.5651 55.3933 94.8045C55.4342 94.5649 55.4585 94.3224 55.4641 94.0801Z" fill="white"/>
<path d="M49.4531 51.1016V56.0469H44.5078V62.6406H49.4531V67.5859H56.0469V62.6406H60.9922V56.0469H56.0469V51.1016H49.4531ZM51.1016 52.75H54.3984V57.6953H59.3438V60.9922H54.3984V65.9375H51.1016V60.9922H46.1562V57.6953H51.1016V52.75Z" fill="white"/>
</svg>
