<svg width="106" height="106" viewBox="0 0 106 106" fill="none" xmlns="http://www.w3.org/2000/svg">
<path d="M32.9688 14.8359V31.3203H11.5391V89.0156H6.59375V90.6641H98.9062V89.0156H93.9609V31.3203H72.5312V14.8359H32.9688ZM34.6172 16.4844H70.8828V89.0156H59.3438V75.8281H46.1562V89.0156H34.6172V16.4844ZM13.1875 32.9688H32.9688V89.0156H13.1875V32.9688ZM72.5312 32.9688H92.3125V89.0156H72.5312V32.9688ZM47.8047 77.4766H51.9258V89.0156H47.8047V77.4766ZM53.5742 77.4766H57.6953V89.0156H53.5742V77.4766Z" fill="white"/>
<path d="M49.4531 19.7812V24.7266H44.5078V31.3203H49.4531V36.2656H56.0469V31.3203H60.9922V24.7266H56.0469V19.7812H49.4531ZM51.1016 21.4297H54.3984V26.375H59.3438V29.6719H54.3984V34.6172H51.1016V29.6719H46.1562V26.375H51.1016V21.4297Z" fill="white"/>
<path d="M42.8594 47.8047H49.4531V49.4531H42.8594V47.8047Z" fill="white"/>
<path d="M56.0469 47.8047H62.6406V49.4531H56.0469V47.8047Z" fill="white"/>
<path d="M19.7812 51.1016H26.375V52.75H19.7812V51.1016Z" fill="white"/>
<path d="M42.8594 54.3984H49.4531V56.0469H42.8594V54.3984Z" fill="white"/>
<path d="M56.0469 54.3984H62.6406V56.0469H56.0469V54.3984Z" fill="white"/>
<path d="M19.7812 57.6953H26.375V59.3438H19.7812V57.6953Z" fill="white"/>
<path d="M42.8594 60.9922H49.4531V62.6406H42.8594V60.9922Z" fill="white"/>
<path d="M56.0469 60.9922H62.6406V62.6406H56.0469V60.9922Z" fill="white"/>
<path d="M19.7812 64.2891H26.375V65.9375H19.7812V64.2891Z" fill="white"/>
<path d="M42.8594 67.5859H49.4531V69.2344H42.8594V67.5859Z" fill="white"/>
<path d="M56.0469 67.5859H62.6406V69.2344H56.0469V67.5859Z" fill="white"/>
<path d="M19.7812 70.8828H26.375V72.5312H19.7812V70.8828Z" fill="white"/>
<path d="M79.125 51.1016H85.7188V52.75H79.125V51.1016Z" fill="white"/>
<path d="M79.125 57.6953H85.7188V59.3438H79.125V57.6953Z" fill="white"/>
<path d="M79.125 64.2891H85.7188V65.9375H79.125V64.2891Z" fill="white"/>
<path d="M79.125 70.8828H85.7188V72.5312H79.125V70.8828Z" fill="white"/>
<path d="M42.8594 41.2109H49.4531V42.8594H42.8594V41.2109Z" fill="white"/>
<path d="M19.7812 44.5078H26.375V46.1562H19.7812V44.5078Z" fill="white"/>
<path d="M79.125 44.5078H85.7188V46.1562H79.125V44.5078Z" fill="white"/>
<path d="M56.0469 41.2109H62.6406V42.8594H56.0469V41.2109Z" fill="white"/>
</svg>
