<svg width="106" height="106" viewBox="0 0 106 106" fill="none" xmlns="http://www.w3.org/2000/svg">
<path d="M79.225 13.5703L77.4766 15.3187L78.6422 16.4844L80.3906 14.7359L79.225 13.5703ZM78.6422 16.4844L77.4766 17.65L79.225 19.3984L80.3906 18.2328L78.6422 16.4844ZM77.4766 17.65L76.3109 16.4844L74.5625 18.2328L75.7281 19.3984L77.4766 17.65ZM76.3109 16.4844L77.4766 15.3187L75.7281 13.5703L74.5625 14.7359L76.3109 16.4844Z" fill="white"/>
<path d="M33.0687 13.5703L31.3203 15.3187L32.4859 16.4844L34.2344 14.7359L33.0687 13.5703ZM32.4859 16.4844L31.3203 17.65L33.0687 19.3984L34.2344 18.2328L32.4859 16.4844ZM31.3203 17.65L30.1547 16.4844L28.4062 18.2328L29.5719 19.3984L31.3203 17.65ZM30.1547 16.4844L31.3203 15.3187L29.5719 13.5703L28.4062 14.7359L30.1547 16.4844Z" fill="white"/>
<path d="M93.9609 28.8477H91.4883V30.4961H93.9609V28.8477ZM91.4883 30.4961H89.8398V32.9688H91.4883V30.4961ZM89.8398 30.4961V28.8477H87.3672V30.4961H89.8398ZM89.8398 28.8477H91.4883V26.375H89.8398V28.8477Z" fill="white"/>
<path d="M21.4297 28.8477H18.957V30.4961H21.4297V28.8477ZM18.957 30.4961H17.3086V32.9688H18.957V30.4961ZM17.3086 30.4961V28.8477H14.8359V30.4961H17.3086ZM17.3086 28.8477H18.957V26.375H17.3086V28.8477Z" fill="white"/>
<path d="M57.6953 9.06641H55.2227V10.7148H57.6953V9.06641ZM55.2227 10.7148H53.5742V13.1875H55.2227V10.7148ZM53.5742 10.7148V9.06641H51.1016V10.7148H53.5742ZM53.5742 9.06641H55.2227V6.59375H53.5742V9.06641Z" fill="white"/>
<path d="M53.8897 19.7813C37.2319 19.7822 23.7115 33.3031 23.7124 49.9586V49.9618C23.7187 51.4038 23.8512 52.8404 24.0633 54.2664L14.8359 70.2453L25.7697 73.172L30.0969 89.3279H44.5078V98.9062L77.4766 90.2841V68.7096C81.7218 63.3788 84.0635 56.7794 84.0703 49.9586C84.0712 33.3018 70.5489 19.7803 53.8897 19.7813V19.7813ZM53.8897 21.4297C61.7879 21.4293 68.9317 24.6326 74.096 29.8103L46.5297 22.4213C48.8812 21.7949 51.3399 21.4298 53.8897 21.4297ZM43.645 23.355L76.0921 32.0479C77.3503 33.6057 78.4323 35.3059 79.3439 37.1092L69.6433 34.5109L69.2151 36.1014L80.2583 39.0602C80.7812 40.3248 81.1914 41.6426 81.53 42.9914L45.9534 37.4665L45.6991 39.0957L81.9196 44.7203C82.235 46.4202 82.422 48.1668 82.4219 49.9586C82.4216 50.2744 82.3908 50.5872 82.38 50.9019L26.1689 43.3166C26.7454 40.9004 27.604 38.5954 28.7511 36.462L42.4408 38.587L42.6952 36.9611L29.6654 34.9359C31.485 32.0068 33.811 29.4375 36.5361 27.3441L66.0341 35.2482L66.4591 33.6577L38.265 26.1013C39.9417 25.0018 41.7471 24.0858 43.645 23.355ZM25.8277 44.936L82.2963 52.5536C81.7769 58.1746 79.6017 63.5359 76.0116 67.9433L75.8281 68.1719V89.0124L46.1562 96.7717V87.6795H31.3622L27.1155 71.8262L17.3376 69.2054L25.7633 54.6174L25.715 54.3276C25.4839 52.8808 25.3672 51.4205 25.3608 49.9554C25.3609 48.2392 25.5376 46.5684 25.8277 44.936V44.936Z" fill="white"/>
</svg>
